<mxfile host="app.diagrams.net" modified="2022-05-18T04:03:10.006Z" agent="5.0 (X11; Linux x86_64) AppleWebKit/537.36 (KHTML, like Gecko) Chrome/101.0.4951.41 Safari/537.36" etag="PFSyScTTsHUxheBi4wgD" version="18.0.3" type="github" pages="2">
  <diagram id="FRml3sk5jPOYkEMEwbq5" name="A-100-2">
    <mxGraphModel dx="1372" dy="773" grid="1" gridSize="10" guides="1" tooltips="1" connect="1" arrows="1" fold="1" page="1" pageScale="1" pageWidth="827" pageHeight="1169" math="0" shadow="0">
      <root>
        <mxCell id="0" />
        <mxCell id="1" parent="0" />
        <mxCell id="i5x4aeX0CjHd288MYa70-4" style="edgeStyle=orthogonalEdgeStyle;rounded=0;orthogonalLoop=1;jettySize=auto;html=1;exitX=1;exitY=0.5;exitDx=0;exitDy=0;entryX=0;entryY=0.5;entryDx=0;entryDy=0;" edge="1" parent="1" source="i5x4aeX0CjHd288MYa70-1" target="i5x4aeX0CjHd288MYa70-3">
          <mxGeometry relative="1" as="geometry" />
        </mxCell>
        <mxCell id="i5x4aeX0CjHd288MYa70-1" value="External API" style="rounded=0;whiteSpace=wrap;html=1;" vertex="1" parent="1">
          <mxGeometry x="30" y="250" width="120" height="60" as="geometry" />
        </mxCell>
        <mxCell id="i5x4aeX0CjHd288MYa70-18" style="edgeStyle=orthogonalEdgeStyle;rounded=0;orthogonalLoop=1;jettySize=auto;html=1;exitX=1;exitY=0.5;exitDx=0;exitDy=0;entryX=0;entryY=0.5;entryDx=0;entryDy=0;" edge="1" parent="1" source="i5x4aeX0CjHd288MYa70-3" target="i5x4aeX0CjHd288MYa70-10">
          <mxGeometry relative="1" as="geometry" />
        </mxCell>
        <mxCell id="i5x4aeX0CjHd288MYa70-19" style="edgeStyle=orthogonalEdgeStyle;rounded=0;orthogonalLoop=1;jettySize=auto;html=1;exitX=1;exitY=0.5;exitDx=0;exitDy=0;entryX=0;entryY=0.5;entryDx=0;entryDy=0;" edge="1" parent="1" source="i5x4aeX0CjHd288MYa70-3" target="i5x4aeX0CjHd288MYa70-13">
          <mxGeometry relative="1" as="geometry" />
        </mxCell>
        <mxCell id="i5x4aeX0CjHd288MYa70-3" value="Users_controller" style="rounded=0;whiteSpace=wrap;html=1;" vertex="1" parent="1">
          <mxGeometry x="210" y="250" width="120" height="60" as="geometry" />
        </mxCell>
        <mxCell id="i5x4aeX0CjHd288MYa70-22" style="edgeStyle=orthogonalEdgeStyle;rounded=0;orthogonalLoop=1;jettySize=auto;html=1;exitX=1;exitY=0.5;exitDx=0;exitDy=0;entryX=0;entryY=0.5;entryDx=0;entryDy=0;" edge="1" parent="1" source="i5x4aeX0CjHd288MYa70-5" target="i5x4aeX0CjHd288MYa70-20">
          <mxGeometry relative="1" as="geometry" />
        </mxCell>
        <mxCell id="i5x4aeX0CjHd288MYa70-23" style="edgeStyle=orthogonalEdgeStyle;rounded=0;orthogonalLoop=1;jettySize=auto;html=1;exitX=1;exitY=0.5;exitDx=0;exitDy=0;entryX=0;entryY=0.5;entryDx=0;entryDy=0;" edge="1" parent="1" source="i5x4aeX0CjHd288MYa70-5" target="i5x4aeX0CjHd288MYa70-21">
          <mxGeometry relative="1" as="geometry" />
        </mxCell>
        <mxCell id="i5x4aeX0CjHd288MYa70-5" value="GET list, list_diff" style="rounded=0;whiteSpace=wrap;html=1;" vertex="1" parent="1">
          <mxGeometry x="650" y="80" width="120" height="60" as="geometry" />
        </mxCell>
        <mxCell id="i5x4aeX0CjHd288MYa70-6" value="PATCH update" style="rounded=0;whiteSpace=wrap;html=1;" vertex="1" parent="1">
          <mxGeometry x="650" y="160" width="120" height="60" as="geometry" />
        </mxCell>
        <mxCell id="i5x4aeX0CjHd288MYa70-11" style="edgeStyle=orthogonalEdgeStyle;rounded=0;orthogonalLoop=1;jettySize=auto;html=1;exitX=1;exitY=0.5;exitDx=0;exitDy=0;entryX=0;entryY=0.5;entryDx=0;entryDy=0;" edge="1" parent="1" source="i5x4aeX0CjHd288MYa70-10" target="i5x4aeX0CjHd288MYa70-5">
          <mxGeometry relative="1" as="geometry" />
        </mxCell>
        <mxCell id="i5x4aeX0CjHd288MYa70-12" style="edgeStyle=orthogonalEdgeStyle;rounded=0;orthogonalLoop=1;jettySize=auto;html=1;exitX=1;exitY=0.5;exitDx=0;exitDy=0;entryX=0;entryY=0.5;entryDx=0;entryDy=0;" edge="1" parent="1" source="i5x4aeX0CjHd288MYa70-10" target="i5x4aeX0CjHd288MYa70-6">
          <mxGeometry relative="1" as="geometry" />
        </mxCell>
        <mxCell id="i5x4aeX0CjHd288MYa70-10" value="API xử lý" style="rounded=0;whiteSpace=wrap;html=1;" vertex="1" parent="1">
          <mxGeometry x="380" y="120" width="120" height="60" as="geometry" />
        </mxCell>
        <mxCell id="i5x4aeX0CjHd288MYa70-13" value="Thêm version" style="rounded=0;whiteSpace=wrap;html=1;" vertex="1" parent="1">
          <mxGeometry x="380" y="250" width="120" height="60" as="geometry" />
        </mxCell>
        <mxCell id="i5x4aeX0CjHd288MYa70-15" value="Thêm mới API&amp;nbsp;" style="text;html=1;strokeColor=none;fillColor=none;align=center;verticalAlign=middle;whiteSpace=wrap;rounded=0;" vertex="1" parent="1">
          <mxGeometry x="580" y="200" width="60" height="30" as="geometry" />
        </mxCell>
        <mxCell id="i5x4aeX0CjHd288MYa70-17" value="Update API" style="text;html=1;strokeColor=none;fillColor=none;align=center;verticalAlign=middle;whiteSpace=wrap;rounded=0;" vertex="1" parent="1">
          <mxGeometry x="580" y="70" width="60" height="30" as="geometry" />
        </mxCell>
        <mxCell id="i5x4aeX0CjHd288MYa70-20" value="Thêm account status" style="rounded=0;whiteSpace=wrap;html=1;" vertex="1" parent="1">
          <mxGeometry x="827" y="20" width="120" height="60" as="geometry" />
        </mxCell>
        <mxCell id="i5x4aeX0CjHd288MYa70-21" value="Thêm field.blocked theo A-256" style="rounded=0;whiteSpace=wrap;html=1;" vertex="1" parent="1">
          <mxGeometry x="827" y="120" width="120" height="60" as="geometry" />
        </mxCell>
      </root>
    </mxGraphModel>
  </diagram>
  <diagram id="nsXxwRsuY810n_VA4FTY" name="B-289">
    <mxGraphModel dx="1372" dy="773" grid="1" gridSize="10" guides="1" tooltips="1" connect="1" arrows="1" fold="1" page="1" pageScale="1" pageWidth="1169" pageHeight="827" math="0" shadow="0">
      <root>
        <mxCell id="0" />
        <mxCell id="1" parent="0" />
        <mxCell id="eo-4nR6x7znant-mCD_X-3" style="edgeStyle=orthogonalEdgeStyle;rounded=0;orthogonalLoop=1;jettySize=auto;html=1;exitX=1;exitY=0.5;exitDx=0;exitDy=0;entryX=0;entryY=0.5;entryDx=0;entryDy=0;" edge="1" parent="1" source="eo-4nR6x7znant-mCD_X-1" target="eo-4nR6x7znant-mCD_X-2">
          <mxGeometry relative="1" as="geometry" />
        </mxCell>
        <mxCell id="eo-4nR6x7znant-mCD_X-1" value="Private API" style="rounded=0;whiteSpace=wrap;html=1;" vertex="1" parent="1">
          <mxGeometry x="50" y="250" width="120" height="60" as="geometry" />
        </mxCell>
        <mxCell id="eo-4nR6x7znant-mCD_X-5" style="edgeStyle=orthogonalEdgeStyle;rounded=0;orthogonalLoop=1;jettySize=auto;html=1;exitX=1;exitY=0.5;exitDx=0;exitDy=0;entryX=0;entryY=0.5;entryDx=0;entryDy=0;" edge="1" parent="1" source="eo-4nR6x7znant-mCD_X-2" target="eo-4nR6x7znant-mCD_X-4">
          <mxGeometry relative="1" as="geometry" />
        </mxCell>
        <mxCell id="eo-4nR6x7znant-mCD_X-2" value="Import worker&lt;br&gt;Skilled_worker_controllers" style="rounded=0;whiteSpace=wrap;html=1;" vertex="1" parent="1">
          <mxGeometry x="230" y="250" width="150" height="60" as="geometry" />
        </mxCell>
        <mxCell id="eo-4nR6x7znant-mCD_X-4" value="Xử lý bất đồng bộ cho client" style="rounded=0;whiteSpace=wrap;html=1;" vertex="1" parent="1">
          <mxGeometry x="440" y="250" width="150" height="60" as="geometry" />
        </mxCell>
      </root>
    </mxGraphModel>
  </diagram>
</mxfile>
